<svg version="1.1"  viewBox="630 170 570 1"
  width="512"
  height="350" xmlns="http://www.w3.org/2000/svg">
<path transform="translate(1185,11)" d="m0 0 5 1 1 2-2 27-2 19-2 30-2 18-5 56-1 5-2 28-2 17-2 24-2 18-4 40-2 4-30 7-26 5-22 5-33 6-28 6-20 4-7-1-14-6-14-5-16-6-30-10-24-7-23-5-7-2-30-5-11-2-26-3-42-3h-52l-35 3-24 3-10 2h-8l1-3 16-8 19-9 27-11 19-7 20-7 17-5 34-9 29-6 28-4 25-2h34l34 3 9 2 13 2 16 4 21 6 18 7 16 8 16 9 17 12 13 12 7 7 5 7v-131l-1-40-3 17-6 31-8 35-6 28-3 9-5-2-13-8-15-8-14-6-20-7-11-3-3-3-7-17-5-12-5-13-5-12-1-2-3 1-12 16-13 17-9 11-2 1-40 1-29 3-16 2-25 5-22 5-25 7-22 7h-3l1-3 12-8 13-11 8-7 15-14 11-11 8-10 5-5 11-12 9-11 14-16 9-10 11-12 5-5 8-6 21-10 11-4 17-5 16-2h28l12 2 13 5 13 7 9 7 7 7 7 10 4-4 11-17 12-16 11-13 7-8 8-7 9-4 25-6 24-5 25-6z" fill="#0B4483"/>
<path transform="translate(866,215)" d="m0 0h34l34 3 9 2 13 2 16 4 21 6 18 7 16 8 16 9 17 12 13 12 7 7 6 8v20l-1 2-33 6-28 6-20 4-7-1-14-6-14-5-16-6-30-10-24-7-23-5-7-2-30-5-11-2-26-3-42-3h-52l-35 3-24 3-10 2h-8l1-3 16-8 19-9 27-11 19-7 20-7 17-5 34-9 29-6 28-4z" fill="#72B516"/>
<path transform="translate(1185,11)" d="m0 0 5 1 1 2-2 27-2 19-2 30-2 18-5 56-1 5-2 28-2 17-2 24-2 18-4 40-2 4-30 7-26 5-18 4-4-1v-152l-1-43 1-9v-47l-1-29 12-4 29-6 16-4 31-7z" fill="#1AB3F2"/>
<path transform="translate(879,82)" d="m0 0h18l12 5 11 6 9 10 8 10 10 18 7 14v3h-2l-2 5-8 10-15 20-10 12-2 1-40 1-29 3-16 2-25 5-22 5-25 7-22 7h-3l1-3 12-8 13-11 8-7 15-14 11-11 8-10 5-5 11-12 9-11 14-16 9-10 11-12 5-5 8-6z" fill="#0B4483"/>
<path transform="translate(867,216)" d="m0 0h43l24 2 9 2 13 2 16 4 21 6 18 7 16 8 16 9 17 12 13 12 7 7 6 8v20l-1 2-33 6-28 6-20 4-6-1 1-4-9-10-11-10-17-12-7-3-13-7-3-3-6-4 2-1-3-21-6-11-7-4-9-6-7-3-4-4-23-8-7-3z" fill="#1B5325"/>
<path transform="translate(1175,167)" d="m0 0h1v17l-5 54-2 18-4 40-2 4-30 7-26 5-18 4-4-1 1-99 1-19 4-4 3-1 2-4 5 2 5 6 5 2 4-1 7-1h4v2l10-2 8-3h8l6-4h2l1-4 10-5 3 1v-13z" fill="#0081CC"/>
<path transform="translate(938,64)" d="m0 0h28l12 2 13 5 13 7 9 7 7 7 7 10h2v2h-3l-1 6-13 24-9 19-4 6-1-3h-2v-2l-13 7-9 6h-3l-4 6h-2l-1 2-10-25-2-2h2l-11-23-10-16-9-10-5-6-19-9-3-1-16-1 4-3 16-7 21-6z" fill="#0081CC"/>
<path transform="translate(1178,108)" d="m0 0h1v9l-1 3 2 2v17l-2 25-1 5-2-1-1 13-5 1-6 3h-2l-1 4-8 5h-8l-11 4h-7v-2l-9 1-3 2-6-1-5-5-5-4h-2l-2 4-4 1-3 3v-37l1-27 3 3 10-2 6 7 9 3 2-4 4-1 3-3 4-2h4v-2l3-2h7l1-3 9-1 2 1v-2l3-3 3-5 6-2v-2h4l1-3z" fill="#06A2E9"/>
<path transform="translate(867,216)" d="m0 0h43l24 2 9 2 13 2 16 4 11 3-4 1h-3l6 5v2l3 1 6 10 2 1 1 4 2 4v3l2 1 2 12 3 14-2 12-1 8-6 9-4-1-5-2-17-13-6-4-7-3-13-7-3-3-6-4 2-1-3-21-6-11-7-4-9-6-7-3-4-4-23-8-7-3z" fill="#387F1C"/>
<path transform="translate(866,215)" d="m0 0h34v1l-31 1 7 3 23 8 4 3v2l9 3 7 5 7 4 6 10 2 6 1 17v2l7 4-2 1-21-10-28-10-26-7-31-5-14-1-10-5-11-2-14-6-8-1v-2l-9 1h-13l4-2 5-3 26-6 7-2 23-4 21-3z" fill="#73B616"/>
<path transform="translate(1082,36)" d="m0 0h3l1 28v47l-1 9-2-4-4 15-8 4-2 2-6-1-5-5-2-3v-3l-8 4-5-1-3-2v2l-3 1h-13l-3-1-2-4-3 2 2-5 7-14 1-3h3l1-4 11-18 13-17 11-13 7-8 8-7z" fill="#0259A3"/>
<path transform="translate(973,228)" d="m0 0 20 4 18 7-3 1 4 5 4 1v2l3 1 7 13 4 4 1 5 4 11v15l-3 11-6 8-3 3-5 8h-5v2h5l-2 2-16 2-2-2v-4l-7-8-4-4v-2l4 2h3l5-8 3-18-2-13-4-16-2-6-3-4-7-12-5-5-6-4z" fill="#25671D"/>
<path transform="translate(758,234)" d="m0 0 3 1v1h16v2h8l17 7 11 2 7 4 20 2 25 4 26 7 20 7 15 6 26 13 6 4 7 3 5 5-2 1-16-9-15-8-18-8-36-12-24-6-33-4-18-1h-28l-25 2-27 4-32 6-40 12-10 2-12 2 5-4 18-8 15-7 27-11 29-10 25-8z" fill="#94D321"/>
<path transform="translate(867,216)" d="m0 0h43l8 1v1l-7 1 17 5 7 4 5 5 11 8 3 5v2l4 2 4 5 4 13 2 10-1 15-1 2-5-1h-4l-15-8-3-3-6-4 2-1-3-21-6-11-7-4-9-6-7-3-4-4-23-8-7-3z" fill="#4C9419"/>
<path transform="translate(866,215)" d="m0 0h34v1l-31 1 7 3 23 8 4 3v2l9 3 7 5 7 4 6 10 2 6 1 17v2l7 4-2 1-21-10-13-5v-2l-5-1v-2l4-1-1-9-4-5-5-6-9-4-6-3-7-2-9-4-12-4-15-3-3-1h-14l1-2 7-2 13-2z" fill="#63AA18"/>
<path transform="translate(938,64)" d="m0 0h28l12 2-2 4h-2l-1 3-11 8-4 5-4 3h-3v2l-9 2-5 2-3 3-4 1 9 14v3l-4-4-7-9-7-7-2-3-19-9-3-1-16-1 4-3 16-7 21-6z" fill="#08A2E9"/>
<path transform="translate(1008,240)" d="m0 0 7 1 16 8 1 4 5 5 11 22 3 1-1 4 2 3-1 17-11 14h-2l1 4 4 2-19 4h-11v-2l6-2 2-4 3-5 5-5 3-5 2-9v-16l-5-12 1-3-3-1-6-10-3-6-8-5z" fill="#1E5B21"/>
<path transform="translate(994,154)" d="m0 0h2v2h4l1 2-8 17-11 20-4 1-1 3-2-5h-3l-6-14-1-7 6-7 5-1 10-7z" fill="#0259A3"/>
<path transform="translate(701,265)" d="m0 0h10l-4 2-11 3 9 2h25l7 1 1 2h21l12 1v2h-63l-35 3-24 3-10 2h-8l1-3 14-3 17-4 33-10z" fill="#66AC18"/>
<path transform="translate(1086,301)" d="m0 0 2 1h3 17l10 1h6l1 1h8l6-2h7v2l-33 7-24 5-4-1z" fill="#095AA1"/>
<path transform="translate(663,278)" d="m0 0h2v2l2 1-7 2-19 2-2 1h-8l1-3 26-4z" fill="#64AA19"/>
<path transform="translate(952,312)" d="m0 0 6 1 29 12-4 1-14-5-16-6z" fill="#6AAF1E"/>
<path transform="translate(1059,59)" d="m0 0h2l-1 4h-2l-2 4-8 11-5 5-2 1 2-4 10-14z" fill="#105292"/>
<path transform="translate(771,276)" d="m0 0 32 2v1l-17 1-14-1z" fill="#70B41C"/>
<path transform="translate(864,288)" d="m0 0 10 1 22 5v1h-9l-18-4v-2h-5z" fill="#6BB118"/>
<path transform="translate(901,296)" d="m0 0 13 3 12 4 2 2-9-1-16-5z" fill="#6DB218"/>
<path transform="translate(887,78)" d="m0 0 10 2v2h-16l4-3z" fill="#1CA2E3"/>
<path transform="translate(969,318)" d="m0 0 16 6 2 2-8-1-10-4z" fill="#5FA618"/>
<path transform="translate(632,283)" d="m0 0h14v1l-7 2h-8z" fill="#559529"/>
<path transform="translate(663,278)" d="m0 0h2v2l2 1-16 1 2-2z" fill="#4C9419"/>
<path transform="translate(1139,302)" d="m0 0h7v2l-5 1h-8l1-2z" fill="#03549C"/>
<path transform="translate(701,265)" d="m0 0h10l-4 2-9 2z" fill="#63AA17"/>
</svg>
